<mxfile host="Electron" modified="2024-01-26T11:59:44.998Z" agent="Mozilla/5.0 (Windows NT 10.0; Win64; x64) AppleWebKit/537.36 (KHTML, like Gecko) draw.io/22.1.21 Chrome/120.0.6099.109 Electron/28.1.0 Safari/537.36" etag="HlP3YhBoPvUM4hr5SoHJ" version="22.1.21" type="device">
  <diagram name="Seite-1" id="jFOsBGiqdpG6RBkZFCJJ">
    <mxGraphModel dx="819" dy="478" grid="1" gridSize="10" guides="1" tooltips="1" connect="1" arrows="1" fold="1" page="0" pageScale="1" pageWidth="827" pageHeight="1169" math="0" shadow="0">
      <root>
        <mxCell id="0" />
        <mxCell id="1" parent="0" />
        <mxCell id="WlG8nfUnTA8UvonYxR9_-14" style="edgeStyle=orthogonalEdgeStyle;rounded=0;orthogonalLoop=1;jettySize=auto;html=1;exitX=1;exitY=0.3333333333333333;exitDx=0;exitDy=0;exitPerimeter=0;entryX=0;entryY=0.5;entryDx=0;entryDy=0;endArrow=none;endFill=0;" parent="1" source="WlG8nfUnTA8UvonYxR9_-1" target="WlG8nfUnTA8UvonYxR9_-3" edge="1">
          <mxGeometry relative="1" as="geometry" />
        </mxCell>
        <mxCell id="WlG8nfUnTA8UvonYxR9_-15" style="edgeStyle=orthogonalEdgeStyle;rounded=0;orthogonalLoop=1;jettySize=auto;html=1;exitX=1;exitY=0.3333333333333333;exitDx=0;exitDy=0;exitPerimeter=0;entryX=0;entryY=0.5;entryDx=0;entryDy=0;endArrow=none;endFill=0;" parent="1" source="WlG8nfUnTA8UvonYxR9_-1" target="WlG8nfUnTA8UvonYxR9_-4" edge="1">
          <mxGeometry relative="1" as="geometry" />
        </mxCell>
        <mxCell id="WlG8nfUnTA8UvonYxR9_-16" style="edgeStyle=orthogonalEdgeStyle;rounded=0;orthogonalLoop=1;jettySize=auto;html=1;exitX=1;exitY=0.3333333333333333;exitDx=0;exitDy=0;exitPerimeter=0;entryX=0;entryY=0.5;entryDx=0;entryDy=0;endArrow=none;endFill=0;" parent="1" source="WlG8nfUnTA8UvonYxR9_-1" target="WlG8nfUnTA8UvonYxR9_-5" edge="1">
          <mxGeometry relative="1" as="geometry" />
        </mxCell>
        <mxCell id="WlG8nfUnTA8UvonYxR9_-17" style="edgeStyle=orthogonalEdgeStyle;rounded=0;orthogonalLoop=1;jettySize=auto;html=1;exitX=1;exitY=0.3333333333333333;exitDx=0;exitDy=0;exitPerimeter=0;entryX=0;entryY=0.5;entryDx=0;entryDy=0;endArrow=none;endFill=0;" parent="1" source="WlG8nfUnTA8UvonYxR9_-1" target="WlG8nfUnTA8UvonYxR9_-6" edge="1">
          <mxGeometry relative="1" as="geometry" />
        </mxCell>
        <mxCell id="WlG8nfUnTA8UvonYxR9_-18" style="edgeStyle=orthogonalEdgeStyle;rounded=0;orthogonalLoop=1;jettySize=auto;html=1;exitX=1;exitY=1;exitDx=0;exitDy=0;exitPerimeter=0;entryX=0.5;entryY=1;entryDx=0;entryDy=0;endArrow=none;endFill=0;" parent="1" source="WlG8nfUnTA8UvonYxR9_-1" target="WlG8nfUnTA8UvonYxR9_-8" edge="1">
          <mxGeometry relative="1" as="geometry">
            <Array as="points">
              <mxPoint x="480" y="460" />
              <mxPoint x="480" y="600" />
              <mxPoint x="755" y="600" />
            </Array>
          </mxGeometry>
        </mxCell>
        <mxCell id="WlG8nfUnTA8UvonYxR9_-30" style="edgeStyle=orthogonalEdgeStyle;rounded=0;orthogonalLoop=1;jettySize=auto;html=1;exitX=0.5;exitY=0;exitDx=0;exitDy=0;exitPerimeter=0;entryX=0.5;entryY=1;entryDx=0;entryDy=0;endArrow=none;endFill=0;" parent="1" source="WlG8nfUnTA8UvonYxR9_-1" target="WlG8nfUnTA8UvonYxR9_-24" edge="1">
          <mxGeometry relative="1" as="geometry">
            <Array as="points">
              <mxPoint x="415" y="320" />
              <mxPoint x="510" y="320" />
            </Array>
          </mxGeometry>
        </mxCell>
        <mxCell id="WlG8nfUnTA8UvonYxR9_-31" style="edgeStyle=orthogonalEdgeStyle;rounded=0;orthogonalLoop=1;jettySize=auto;html=1;exitX=0.5;exitY=0;exitDx=0;exitDy=0;exitPerimeter=0;entryX=0;entryY=0.5;entryDx=0;entryDy=0;endArrow=none;endFill=0;" parent="1" source="WlG8nfUnTA8UvonYxR9_-1" target="WlG8nfUnTA8UvonYxR9_-25" edge="1">
          <mxGeometry relative="1" as="geometry">
            <Array as="points">
              <mxPoint x="415" y="320" />
              <mxPoint x="290" y="320" />
              <mxPoint x="290" y="155" />
            </Array>
          </mxGeometry>
        </mxCell>
        <mxCell id="WlG8nfUnTA8UvonYxR9_-36" style="edgeStyle=orthogonalEdgeStyle;rounded=0;orthogonalLoop=1;jettySize=auto;html=1;exitX=0;exitY=0.3333333333333333;exitDx=0;exitDy=0;exitPerimeter=0;entryX=1;entryY=0.5;entryDx=0;entryDy=0;endArrow=none;endFill=0;" parent="1" source="WlG8nfUnTA8UvonYxR9_-1" target="WlG8nfUnTA8UvonYxR9_-32" edge="1">
          <mxGeometry relative="1" as="geometry" />
        </mxCell>
        <mxCell id="WlG8nfUnTA8UvonYxR9_-37" style="edgeStyle=orthogonalEdgeStyle;rounded=0;orthogonalLoop=1;jettySize=auto;html=1;exitX=0;exitY=0.3333333333333333;exitDx=0;exitDy=0;exitPerimeter=0;entryX=1;entryY=0.5;entryDx=0;entryDy=0;endArrow=none;endFill=0;" parent="1" source="WlG8nfUnTA8UvonYxR9_-1" target="WlG8nfUnTA8UvonYxR9_-33" edge="1">
          <mxGeometry relative="1" as="geometry" />
        </mxCell>
        <mxCell id="WlG8nfUnTA8UvonYxR9_-38" style="edgeStyle=orthogonalEdgeStyle;rounded=0;orthogonalLoop=1;jettySize=auto;html=1;exitX=0;exitY=0.3333333333333333;exitDx=0;exitDy=0;exitPerimeter=0;entryX=1;entryY=0.5;entryDx=0;entryDy=0;endArrow=none;endFill=0;" parent="1" source="WlG8nfUnTA8UvonYxR9_-1" target="WlG8nfUnTA8UvonYxR9_-34" edge="1">
          <mxGeometry relative="1" as="geometry" />
        </mxCell>
        <mxCell id="WlG8nfUnTA8UvonYxR9_-39" style="edgeStyle=orthogonalEdgeStyle;rounded=0;orthogonalLoop=1;jettySize=auto;html=1;exitX=0;exitY=0.3333333333333333;exitDx=0;exitDy=0;exitPerimeter=0;entryX=1;entryY=0.5;entryDx=0;entryDy=0;endArrow=none;endFill=0;" parent="1" source="WlG8nfUnTA8UvonYxR9_-1" target="WlG8nfUnTA8UvonYxR9_-35" edge="1">
          <mxGeometry relative="1" as="geometry" />
        </mxCell>
        <mxCell id="WlG8nfUnTA8UvonYxR9_-1" value="Spieler" style="shape=umlActor;verticalLabelPosition=bottom;verticalAlign=top;html=1;" parent="1" vertex="1">
          <mxGeometry x="400" y="400" width="30" height="60" as="geometry" />
        </mxCell>
        <mxCell id="WlG8nfUnTA8UvonYxR9_-2" value="Hauptmenü" style="swimlane;whiteSpace=wrap;html=1;fillColor=#60a917;fontColor=#000000;strokeColor=#2D7600;" parent="1" vertex="1">
          <mxGeometry x="540" y="290" width="290" height="290" as="geometry" />
        </mxCell>
        <mxCell id="WlG8nfUnTA8UvonYxR9_-3" value="Levelauswahl öffnen" style="ellipse;whiteSpace=wrap;html=1;strokeColor=#60A917;" parent="WlG8nfUnTA8UvonYxR9_-2" vertex="1">
          <mxGeometry x="20" y="30" width="130" height="50" as="geometry" />
        </mxCell>
        <mxCell id="WlG8nfUnTA8UvonYxR9_-4" value="Level auswählen" style="ellipse;whiteSpace=wrap;html=1;strokeColor=#60A917;" parent="WlG8nfUnTA8UvonYxR9_-2" vertex="1">
          <mxGeometry x="20" y="100" width="130" height="50" as="geometry" />
        </mxCell>
        <mxCell id="WlG8nfUnTA8UvonYxR9_-5" value="Turmtyp auswählen" style="ellipse;whiteSpace=wrap;html=1;strokeColor=#60A917;" parent="WlG8nfUnTA8UvonYxR9_-2" vertex="1">
          <mxGeometry x="20" y="170" width="130" height="50" as="geometry" />
        </mxCell>
        <mxCell id="WlG8nfUnTA8UvonYxR9_-6" value="Spiel beenden" style="ellipse;whiteSpace=wrap;html=1;strokeColor=#60A917;" parent="WlG8nfUnTA8UvonYxR9_-2" vertex="1">
          <mxGeometry x="20" y="230" width="130" height="50" as="geometry" />
        </mxCell>
        <mxCell id="WlG8nfUnTA8UvonYxR9_-19" style="edgeStyle=orthogonalEdgeStyle;rounded=0;orthogonalLoop=1;jettySize=auto;html=1;exitX=1;exitY=0.5;exitDx=0;exitDy=0;endArrow=none;endFill=0;" parent="WlG8nfUnTA8UvonYxR9_-2" source="WlG8nfUnTA8UvonYxR9_-7" edge="1">
          <mxGeometry relative="1" as="geometry">
            <mxPoint x="-110" y="170" as="targetPoint" />
            <Array as="points">
              <mxPoint x="270" y="125" />
              <mxPoint x="270" y="310" />
              <mxPoint x="-60" y="310" />
              <mxPoint x="-60" y="170" />
            </Array>
          </mxGeometry>
        </mxCell>
        <mxCell id="WlG8nfUnTA8UvonYxR9_-7" value="Zurück" style="ellipse;whiteSpace=wrap;html=1;strokeColor=#60A917;" parent="WlG8nfUnTA8UvonYxR9_-2" vertex="1">
          <mxGeometry x="180" y="100" width="70" height="50" as="geometry" />
        </mxCell>
        <mxCell id="WlG8nfUnTA8UvonYxR9_-8" value="Level öffnen" style="ellipse;whiteSpace=wrap;html=1;strokeColor=#60A917;" parent="WlG8nfUnTA8UvonYxR9_-2" vertex="1">
          <mxGeometry x="180" y="170" width="70" height="50" as="geometry" />
        </mxCell>
        <mxCell id="WlG8nfUnTA8UvonYxR9_-9" value="" style="endArrow=block;endSize=10;endFill=0;html=1;rounded=0;entryX=0.5;entryY=1;entryDx=0;entryDy=0;exitX=0.5;exitY=0;exitDx=0;exitDy=0;" parent="WlG8nfUnTA8UvonYxR9_-2" source="WlG8nfUnTA8UvonYxR9_-5" target="WlG8nfUnTA8UvonYxR9_-4" edge="1">
          <mxGeometry y="20" width="160" relative="1" as="geometry">
            <mxPoint x="-180" y="230" as="sourcePoint" />
            <mxPoint x="-20" y="230" as="targetPoint" />
            <mxPoint as="offset" />
          </mxGeometry>
        </mxCell>
        <mxCell id="WlG8nfUnTA8UvonYxR9_-10" value="" style="endArrow=block;endSize=10;endFill=0;html=1;rounded=0;entryX=0.5;entryY=1;entryDx=0;entryDy=0;exitX=0.5;exitY=0;exitDx=0;exitDy=0;" parent="WlG8nfUnTA8UvonYxR9_-2" source="WlG8nfUnTA8UvonYxR9_-4" target="WlG8nfUnTA8UvonYxR9_-3" edge="1">
          <mxGeometry y="20" width="160" relative="1" as="geometry">
            <mxPoint x="95" y="180" as="sourcePoint" />
            <mxPoint x="95" y="160" as="targetPoint" />
            <mxPoint as="offset" />
          </mxGeometry>
        </mxCell>
        <mxCell id="WlG8nfUnTA8UvonYxR9_-11" value="" style="endArrow=block;endSize=10;endFill=0;html=1;rounded=0;entryX=1;entryY=0.5;entryDx=0;entryDy=0;exitX=0;exitY=0.5;exitDx=0;exitDy=0;" parent="WlG8nfUnTA8UvonYxR9_-2" source="WlG8nfUnTA8UvonYxR9_-7" target="WlG8nfUnTA8UvonYxR9_-4" edge="1">
          <mxGeometry y="20" width="160" relative="1" as="geometry">
            <mxPoint x="95" y="110" as="sourcePoint" />
            <mxPoint x="95" y="90" as="targetPoint" />
            <mxPoint as="offset" />
          </mxGeometry>
        </mxCell>
        <mxCell id="WlG8nfUnTA8UvonYxR9_-12" value="" style="endArrow=block;endSize=10;endFill=0;html=1;rounded=0;entryX=1;entryY=1;entryDx=0;entryDy=0;exitX=0;exitY=0;exitDx=0;exitDy=0;" parent="WlG8nfUnTA8UvonYxR9_-2" source="WlG8nfUnTA8UvonYxR9_-7" target="WlG8nfUnTA8UvonYxR9_-3" edge="1">
          <mxGeometry y="20" width="160" relative="1" as="geometry">
            <mxPoint x="190" y="135" as="sourcePoint" />
            <mxPoint x="160" y="135" as="targetPoint" />
            <mxPoint as="offset" />
          </mxGeometry>
        </mxCell>
        <mxCell id="WlG8nfUnTA8UvonYxR9_-13" value="" style="endArrow=block;endSize=10;endFill=0;html=1;rounded=0;entryX=1;entryY=1;entryDx=0;entryDy=0;exitX=0;exitY=0;exitDx=0;exitDy=0;" parent="WlG8nfUnTA8UvonYxR9_-2" source="WlG8nfUnTA8UvonYxR9_-8" target="WlG8nfUnTA8UvonYxR9_-4" edge="1">
          <mxGeometry y="20" width="160" relative="1" as="geometry">
            <mxPoint x="200" y="145" as="sourcePoint" />
            <mxPoint x="170" y="145" as="targetPoint" />
            <mxPoint as="offset" />
          </mxGeometry>
        </mxCell>
        <mxCell id="WlG8nfUnTA8UvonYxR9_-20" value="Level" style="swimlane;whiteSpace=wrap;html=1;fillColor=#a20025;fontColor=#000000;strokeColor=#6F0000;" parent="1" vertex="1">
          <mxGeometry x="110" y="290" width="150" height="270" as="geometry" />
        </mxCell>
        <mxCell id="WlG8nfUnTA8UvonYxR9_-32" value="Level starten" style="ellipse;whiteSpace=wrap;html=1;strokeColor=#A20025;" parent="WlG8nfUnTA8UvonYxR9_-20" vertex="1">
          <mxGeometry x="10" y="30" width="130" height="50" as="geometry" />
        </mxCell>
        <mxCell id="WlG8nfUnTA8UvonYxR9_-33" value="Turm platzieren" style="ellipse;whiteSpace=wrap;html=1;strokeColor=#A20025;" parent="WlG8nfUnTA8UvonYxR9_-20" vertex="1">
          <mxGeometry x="10" y="90" width="130" height="50" as="geometry" />
        </mxCell>
        <mxCell id="WlG8nfUnTA8UvonYxR9_-34" value="Turm entfernen" style="ellipse;whiteSpace=wrap;html=1;strokeColor=#A20025;" parent="WlG8nfUnTA8UvonYxR9_-20" vertex="1">
          <mxGeometry x="10" y="150" width="130" height="50" as="geometry" />
        </mxCell>
        <mxCell id="WlG8nfUnTA8UvonYxR9_-35" value="Level beenden" style="ellipse;whiteSpace=wrap;html=1;strokeColor=#A20025;" parent="WlG8nfUnTA8UvonYxR9_-20" vertex="1">
          <mxGeometry x="10" y="210" width="130" height="50" as="geometry" />
        </mxCell>
        <mxCell id="WlG8nfUnTA8UvonYxR9_-21" value="Optionen" style="swimlane;whiteSpace=wrap;html=1;fillColor=#1ba1e2;fontColor=#000000;strokeColor=#006EAF;" parent="1" vertex="1">
          <mxGeometry x="300" y="100" width="250" height="160" as="geometry" />
        </mxCell>
        <mxCell id="WlG8nfUnTA8UvonYxR9_-23" value="Optionsmenü öffnen" style="ellipse;whiteSpace=wrap;html=1;strokeColor=#1BA1E2;" parent="WlG8nfUnTA8UvonYxR9_-21" vertex="1">
          <mxGeometry x="10" y="100" width="130" height="50" as="geometry" />
        </mxCell>
        <mxCell id="WlG8nfUnTA8UvonYxR9_-24" value="Zurück" style="ellipse;whiteSpace=wrap;html=1;strokeColor=#1BA1E2;" parent="WlG8nfUnTA8UvonYxR9_-21" vertex="1">
          <mxGeometry x="180" y="100" width="60" height="50" as="geometry" />
        </mxCell>
        <mxCell id="WlG8nfUnTA8UvonYxR9_-26" value="" style="endArrow=block;endSize=10;endFill=0;html=1;rounded=0;entryX=1;entryY=0.5;entryDx=0;entryDy=0;exitX=0;exitY=0.5;exitDx=0;exitDy=0;" parent="WlG8nfUnTA8UvonYxR9_-21" source="WlG8nfUnTA8UvonYxR9_-24" target="WlG8nfUnTA8UvonYxR9_-23" edge="1">
          <mxGeometry y="20" width="160" relative="1" as="geometry">
            <mxPoint x="365" y="-170" as="sourcePoint" />
            <mxPoint x="365" y="-190" as="targetPoint" />
            <mxPoint as="offset" />
          </mxGeometry>
        </mxCell>
        <mxCell id="WlG8nfUnTA8UvonYxR9_-25" value="Fortschritt zurücksetzen" style="ellipse;whiteSpace=wrap;html=1;strokeColor=#1BA1E2;" parent="1" vertex="1">
          <mxGeometry x="310" y="130" width="130" height="50" as="geometry" />
        </mxCell>
        <mxCell id="WlG8nfUnTA8UvonYxR9_-27" value="" style="endArrow=block;endSize=10;endFill=0;html=1;rounded=0;entryX=0.5;entryY=0;entryDx=0;entryDy=0;exitX=0.5;exitY=1;exitDx=0;exitDy=0;" parent="1" source="WlG8nfUnTA8UvonYxR9_-25" target="WlG8nfUnTA8UvonYxR9_-23" edge="1">
          <mxGeometry y="20" width="160" relative="1" as="geometry">
            <mxPoint x="490" y="165" as="sourcePoint" />
            <mxPoint x="450" y="165" as="targetPoint" />
            <mxPoint as="offset" />
          </mxGeometry>
        </mxCell>
        <mxCell id="WlG8nfUnTA8UvonYxR9_-29" style="edgeStyle=orthogonalEdgeStyle;rounded=0;orthogonalLoop=1;jettySize=auto;html=1;exitX=0.5;exitY=1;exitDx=0;exitDy=0;entryX=0.5;entryY=0;entryDx=0;entryDy=0;entryPerimeter=0;endArrow=none;endFill=0;" parent="1" source="WlG8nfUnTA8UvonYxR9_-23" target="WlG8nfUnTA8UvonYxR9_-1" edge="1">
          <mxGeometry relative="1" as="geometry">
            <Array as="points">
              <mxPoint x="375" y="320" />
              <mxPoint x="415" y="320" />
            </Array>
          </mxGeometry>
        </mxCell>
        <mxCell id="ufTKArYPSRSzJeNvmcEm-1" value="Use-Case-Diagramm" style="text;html=1;strokeColor=none;fillColor=none;align=center;verticalAlign=middle;whiteSpace=wrap;rounded=0;fontSize=18;" vertex="1" parent="1">
          <mxGeometry x="80" y="30" width="710" height="30" as="geometry" />
        </mxCell>
      </root>
    </mxGraphModel>
  </diagram>
</mxfile>
